HIERARCHY
ROOT Hips
{
	OFFSET 0.00000 0.00000 0.00000
	CHANNELS 6 Xposition Yposition Zposition Zrotation Yrotation Xrotation 
	JOINT LHipJoint
	{
		OFFSET 0 0 0
		CHANNELS 3 Zrotation Yrotation Xrotation
		JOINT LeftUpLeg
		{
			OFFSET 1.80322 -1.53100 0.99595
			CHANNELS 3 Zrotation Yrotation Xrotation
			JOINT LeftLeg
			{
				OFFSET 2.25177 -6.18669 0.00000
				CHANNELS 3 Zrotation Yrotation Xrotation
				JOINT LeftFoot
				{
					OFFSET 2.26601 -6.22582 0.00000
					CHANNELS 3 Zrotation Yrotation Xrotation
					JOINT LeftToeBase
					{
						OFFSET 0.23701 -0.65119 2.15848
						CHANNELS 3 Zrotation Yrotation Xrotation
						End Site
						{
							OFFSET 0.00000 -0.00000 1.12949
						}
					}
				}
			}
		}
	}
	JOINT RHipJoint
	{
		OFFSET 0 0 0
		CHANNELS 3 Zrotation Yrotation Xrotation
		JOINT RightUpLeg
		{
			OFFSET -1.93977 -1.53100 0.99595
			CHANNELS 3 Zrotation Yrotation Xrotation
			JOINT RightLeg
			{
				OFFSET -2.28036 -6.26523 0.00000
				CHANNELS 3 Zrotation Yrotation Xrotation
				JOINT RightFoot
				{
					OFFSET -2.25490 -6.19528 0.00000
					CHANNELS 3 Zrotation Yrotation Xrotation
					JOINT RightToeBase
					{
						OFFSET -0.28375 -0.77960 2.23137
						CHANNELS 3 Zrotation Yrotation Xrotation
						End Site
						{
							OFFSET -0.00000 -0.00000 1.17899
						}
					}
				}
			}
		}
	}
	JOINT LowerBack
	{
		OFFSET 0 0 0
		CHANNELS 3 Zrotation Yrotation Xrotation
		JOINT Spine
		{
			OFFSET -0.00088 2.12090 -0.02806
			CHANNELS 3 Zrotation Yrotation Xrotation
			JOINT Spine1
			{
				OFFSET -0.00286 2.09666 0.12974
				CHANNELS 3 Zrotation Yrotation Xrotation
				JOINT Neck
				{
					OFFSET 0 0 0
					CHANNELS 3 Zrotation Yrotation Xrotation
					JOINT Neck1
					{
						OFFSET 0.07328 1.83526 0.07290
						CHANNELS 3 Zrotation Yrotation Xrotation
						JOINT Head
						{
							OFFSET -0.06683 1.74974 -0.49542
							CHANNELS 3 Zrotation Yrotation Xrotation
							End Site
							{
								OFFSET -0.03398 1.85163 -0.17573
							}
						}
					}
				}
				JOINT LeftShoulder
				{
					OFFSET 0 0 0
					CHANNELS 3 Zrotation Yrotation Xrotation
					JOINT LeftArm
					{
						OFFSET 3.02113 1.18018 0.40602
						CHANNELS 3 Zrotation Yrotation Xrotation
						JOINT LeftForeArm
						{
							OFFSET 4.58538 -0.00000 -0.00000
							CHANNELS 3 Zrotation Yrotation Xrotation
							JOINT LeftHand
							{
								OFFSET 2.68935 -0.00000 -0.00000
								CHANNELS 3 Zrotation Yrotation Xrotation
								JOINT LeftFingerBase
								{
									OFFSET 0 0 0
									CHANNELS 3 Zrotation Yrotation Xrotation
									JOINT LeftHandIndex1
									{
										OFFSET 0.58506 -0.00000 -0.00000
										CHANNELS 3 Zrotation Yrotation Xrotation
										End Site
										{
											OFFSET 0.47169 -0.00000 -0.00000
										}
									}
								}
								JOINT LThumb
								{
									OFFSET 0 0 0
									CHANNELS 3 Zrotation Yrotation Xrotation
									End Site
									{
										OFFSET 0.47889 -0.00000 0.47889
									}
								}
							}
						}
					}
				}
				JOINT RightShoulder
				{
					OFFSET 0 0 0
					CHANNELS 3 Zrotation Yrotation Xrotation
					JOINT RightArm
					{
						OFFSET -2.95074 1.18843 0.31430
						CHANNELS 3 Zrotation Yrotation Xrotation
						JOINT RightForeArm
						{
							OFFSET -4.47450 -0.00000 -0.00000
							CHANNELS 3 Zrotation Yrotation Xrotation
							JOINT RightHand
							{
								OFFSET -2.93896 -0.00000 -0.00000
								CHANNELS 3 Zrotation Yrotation Xrotation
								JOINT RightFingerBase
								{
									OFFSET 0 0 0
									CHANNELS 3 Zrotation Yrotation Xrotation
									JOINT RightHandIndex1
									{
										OFFSET -0.40509 -0.00000 -0.00000
										CHANNELS 3 Zrotation Yrotation Xrotation
										End Site
										{
											OFFSET -0.32660 -0.00000 -0.00000
										}
									}
								}
								JOINT RThumb
								{
									OFFSET 0 0 0
									CHANNELS 3 Zrotation Yrotation Xrotation
									End Site
									{
										OFFSET -0.33158 -0.00000 0.33158
									}
								}
							}
						}
					}
				}
			}
		}
	}
}
MOTION
Frames: 15
Frame Time: .0083333
-0.2951 12.2609 2.4009 -381.8900 -74.5155 406.6850 0.0000 0.0000 0.0000 4.8025 15.6251 -56.8754 23.5350 19.6977 100.3859 1.5642 -12.0359 -22.6967 4.7118 -13.0517 -39.5622 0.0000 0.0000 0.0000 10.5898 27.0387 -84.3091 -18.1315 -19.9161 84.5294 -0.9325 14.5783 -18.7335 -0.7536 -5.5445 15.4682 -3.3159 -4.8947 17.8877 -0.2982 -7.1819 1.1578 3.2960 -3.3452 -8.3609 20.9016 14.6962 -6.9534 -20.9747 19.3863 2.9854 -7.9456 9.1707 6.2663 -0.0000 0.0000 0.0000 -23.3304 -52.2742 -9.1561 12.5270 -20.5902 -2.2842 -0.0000 -0.0000 21.4197 10.4691 17.7056 3.2165 -7.1250 0.0000 -0.0000 -16.7012 47.2495 -0.9525 -0.0000 0.0000 0.0000 77.6636 -16.0550 21.4325 -26.5767 37.7725 -9.2386 0.0000 -0.0000 -10.7864 -18.9412 -0.7464 0.2562 7.1250 -0.0000 -0.0000 6.0524 -30.7374 2.1192
-0.2978 12.2155 2.4053 -382.3950 -74.7407 407.3130 0.0000 0.0000 0.0000 4.8753 15.9217 -57.2212 23.7588 19.6578 101.0504 1.5562 -12.0773 -22.6482 4.7033 -13.0417 -39.5247 0.0000 0.0000 0.0000 10.5320 27.1108 -84.8350 -18.3035 -19.9309 85.0344 -0.9201 14.8355 -18.7249 -0.7767 -5.6271 15.7062 -3.2888 -4.9350 18.0971 -0.3033 -7.2361 1.2339 3.3051 -3.3717 -8.3933 20.8967 14.7135 -6.9878 -21.1513 19.3826 2.6757 -8.0036 9.1659 6.1989 0.0000 0.0000 0.0000 -22.4827 -52.6393 -11.6070 12.0059 -19.8135 -2.1043 -0.0000 -0.0000 22.8639 10.2505 17.5914 3.1283 -7.1250 0.0000 -0.0000 -16.8585 47.1101 -0.9025 0.0000 0.0000 0.0000 77.7507 -16.0050 21.2772 -26.2922 37.4958 -9.0649 0.0000 -0.0000 -10.4152 -19.0069 -0.6500 0.2239 7.1250 -0.0000 -0.0000 5.9938 -30.6368 2.1130
-0.3013 12.1722 2.4084 -382.9070 -74.9570 407.9310 0.0000 0.0000 0.0000 4.9565 16.2248 -57.5201 23.9649 19.6188 101.6638 1.5495 -12.1376 -22.6110 4.6992 -13.0368 -39.5064 0.0000 0.0000 0.0000 10.4768 27.2003 -85.3193 -18.4686 -19.9437 85.5185 -0.9086 15.0678 -18.7166 -0.8015 -5.7138 15.9564 -3.2879 -4.9618 18.3123 -0.3022 -7.2776 1.3093 3.3332 -3.3910 -8.4264 20.8700 14.7205 -7.0316 -21.2940 19.3641 2.3929 -8.0494 9.1540 6.1320 0.0000 0.0000 0.0000 -21.6920 -52.9828 -13.9709 11.5401 -19.1113 -1.9491 -0.0000 -0.0000 24.3136 9.9942 17.4528 3.0254 -7.1250 0.0000 -0.0000 -17.0410 46.9428 -0.8406 0.0000 0.0000 0.0000 77.8283 -15.9625 21.1772 -26.0310 37.2394 -8.9064 0.0000 -0.0000 -10.0528 -19.1150 -0.6273 0.2174 7.1250 -0.0000 -0.0000 5.9068 -30.6142 2.0853
-0.3054 12.1312 2.4104 -383.4390 -75.1627 408.5480 0.0000 0.0000 0.0000 5.0499 16.5413 -57.7674 24.1539 19.5812 102.2271 1.5448 -12.2119 -22.5902 4.7019 -13.0400 -39.5186 0.0000 0.0000 0.0000 10.4327 27.3080 -85.7561 -18.6267 -19.9547 85.9817 -0.8984 15.2726 -18.7117 -0.8280 -5.8054 16.2208 -3.2798 -4.9796 18.5321 -0.3197 -7.3077 1.3869 3.3353 -3.4054 -8.4635 20.8405 14.7179 -7.0853 -21.3858 19.3284 2.1374 -8.0807 9.1345 6.0645 0.0000 -0.0000 0.0000 -20.9226 -53.3056 -16.2016 11.1335 -18.4926 -1.8180 -0.0000 -0.0000 25.6795 9.7297 17.2990 2.9188 -7.1250 0.0000 -0.0000 -17.2247 46.7602 -0.7705 0.0000 -0.0000 0.0000 77.9474 -15.9276 21.1015 -25.7954 37.0060 -8.7642 0.0000 -0.0000 -9.7125 -19.2556 -0.6770 0.2365 7.1250 -0.0000 -0.0000 5.7990 -30.6682 2.0393
-0.3096 12.0920 2.4125 -383.9380 -75.3435 409.1230 0.0000 0.0000 0.0000 5.1437 16.8361 -57.9916 24.3293 19.5446 102.7510 1.5427 -12.2838 -22.5869 4.7075 -13.0466 -39.5431 0.0000 0.0000 0.0000 10.3941 27.4006 -86.1680 -18.7786 -19.9642 86.4268 -0.8892 15.4605 -18.7089 -0.8544 -5.8949 16.4797 -3.2090 -5.0046 18.7457 -0.3792 -7.3384 1.4618 3.2578 -3.4226 -8.5137 20.8322 14.7044 -7.1491 -21.4209 19.2722 1.9155 -8.0996 9.1062 5.9994 0.0000 0.0000 0.0000 -20.1572 -53.5869 -18.1199 10.8052 -17.9890 -1.7153 -0.0000 -0.0000 26.7573 9.5083 17.1984 2.8352 -7.1250 0.0000 -0.0000 -17.3884 46.6349 -0.7230 0.0000 0.0000 0.0000 78.1432 -15.9054 21.0175 -25.5861 36.7971 -8.6385 0.0000 -0.0000 -9.4669 -19.3445 -0.7202 0.2528 7.1250 -0.0000 -0.0000 5.7316 -30.7149 2.0090
-0.3136 12.0546 2.4152 -384.3930 -75.5037 409.6470 0.0000 0.0000 0.0000 5.2257 17.1093 -58.1966 24.4916 19.5093 103.2366 1.5458 -12.3270 -22.6153 4.7210 -13.0626 -39.6031 0.0000 0.0000 0.0000 10.3578 27.4772 -86.5566 -18.9244 -19.9722 86.8538 -0.8812 15.6301 -18.7108 -0.8791 -5.9772 16.7182 -3.0864 -5.0347 18.9541 -0.4744 -7.3682 1.5333 3.1134 -3.4415 -8.5763 20.8450 14.6821 -7.2194 -21.4154 19.2004 1.7235 -8.1106 9.0709 5.9380 0.0000 0.0000 0.0000 -19.4115 -53.8329 -19.6912 10.5520 -17.5984 -1.6379 -0.0000 -0.0000 27.4944 9.3508 17.1668 2.7825 -7.1250 0.0000 -0.0000 -17.5194 46.5843 -0.7062 0.0000 0.0000 0.0000 78.3979 -15.8937 20.9338 -25.4059 36.6160 -8.5309 0.0000 -0.0000 -9.3223 -19.3852 -0.7547 0.2655 7.1250 -0.0000 -0.0000 5.7016 -30.7518 1.9933
-0.3176 12.0191 2.4178 -384.7620 -75.6527 410.0800 0.0000 0.0000 0.0000 5.2825 17.3554 -58.3820 24.6419 19.4754 103.6870 1.5526 -12.3528 -22.6652 4.7345 -13.0784 -39.6625 0.0000 0.0000 0.0000 10.3132 27.5328 -86.9279 -19.0652 -19.9790 87.2658 -0.8746 15.7838 -18.7177 -0.9014 -6.0507 16.9317 -2.9452 -5.0700 19.1504 -0.5910 -7.4022 1.6020 2.9360 -3.4635 -8.6405 20.8622 14.6551 -7.3076 -21.3770 19.1212 1.5760 -8.1115 9.0313 5.8878 -0.0000 -0.0000 0.0000 -18.7067 -54.0329 -20.8973 10.3720 -17.3194 -1.5839 -0.0000 -0.0000 27.8812 9.2648 17.2363 2.7673 -7.1250 0.0000 -0.0000 -17.6229 46.6401 -0.7356 -0.0000 -0.0000 0.0000 78.6684 -15.8874 20.8956 -25.2531 36.4616 -8.4399 0.0000 -0.0000 -9.2748 -19.3859 -0.7195 0.2532 7.1250 -0.0000 -0.0000 5.6988 -30.7147 1.9974
-0.3216 11.9857 2.4208 -385.0450 -75.7844 410.4220 0.0000 0.0000 0.0000 5.3178 17.5714 -58.5516 24.7814 19.4428 104.1056 1.5617 -12.3652 -22.7296 4.7415 -13.0867 -39.6937 0.0000 0.0000 0.0000 10.2571 27.5721 -87.2770 -19.2005 -19.9847 87.6617 -0.8708 15.9136 -18.7380 -0.9202 -6.1119 17.1093 -2.7913 -5.1039 19.3393 -0.7180 -7.4323 1.6690 2.7387 -3.4843 -8.7060 20.8955 14.6232 -7.4062 -21.3319 19.0355 1.4614 -8.1129 8.9875 5.8486 -0.0000 0.0000 0.0000 -18.0558 -54.2159 -21.7844 10.2505 -17.1305 -1.5479 -0.0000 -0.0000 27.9805 9.2367 17.3606 2.7780 -7.1250 0.0000 -0.0000 -17.6946 46.7555 -0.7907 -0.0000 0.0000 0.0000 78.9589 -15.8833 20.8461 -25.1237 36.3302 -8.3631 0.0000 -0.0000 -9.2432 -19.3374 -0.6668 0.2340 7.1250 -0.0000 -0.0000 5.7336 -30.6585 2.0175
-0.3254 11.9544 2.4239 -385.2590 -75.8991 410.6870 0.0000 0.0000 0.0000 5.3366 17.7646 -58.7064 24.9110 19.4116 104.4955 1.5731 -12.3577 -22.8056 4.7435 -13.0890 -39.7026 0.0000 0.0000 0.0000 10.1932 27.6025 -87.6008 -19.3296 -19.9892 88.0396 -0.8695 16.0209 -18.7686 -0.9376 -6.1676 17.2716 -2.6707 -5.1299 19.5223 -0.8176 -7.4559 1.7340 2.5870 -3.5006 -8.7629 20.9010 14.5893 -7.5106 -21.2965 18.9531 1.3711 -8.1122 8.9440 5.8171 0.0000 0.0000 0.0000 -17.4997 -54.3890 -22.4680 10.1700 -17.0050 -1.5243 -0.0000 -0.0000 27.9237 9.2480 17.5140 2.8053 -7.1250 0.0000 -0.0000 -17.7420 46.9041 -0.8599 0.0000 0.0000 0.0000 79.1866 -15.8741 20.8445 -25.0201 36.2246 -8.3018 0.0000 -0.0000 -9.2254 -19.2872 -0.6091 0.2132 7.1250 -0.0000 -0.0000 5.7694 -30.5971 2.0387
-0.3289 11.9254 2.4268 -385.3760 -75.9918 410.8540 0.0000 0.0000 0.0000 5.3328 17.9296 -58.8622 25.0313 19.3819 104.8577 1.5867 -12.3192 -22.8919 4.7435 -13.0890 -39.7024 0.0000 0.0000 0.0000 10.1147 27.6195 -87.9072 -19.4515 -19.9928 88.3961 -0.8712 16.1005 -18.8113 -0.9516 -6.2122 17.4014 -2.5892 -5.1461 19.6978 -0.8840 -7.4713 1.7969 2.4894 -3.5112 -8.8085 20.8857 14.5570 -7.6152 -21.2855 18.8792 1.2946 -8.1147 8.9033 5.7930 0.0000 -0.0000 0.0000 -17.0335 -54.5709 -23.0474 10.1146 -16.9186 -1.5081 -0.0000 -0.0000 27.8367 9.2826 17.6298 2.8339 -7.1250 0.0000 -0.0000 -17.7542 47.0196 -0.9126 0.0000 -0.0000 0.0000 79.3625 -15.8550 20.8434 -24.9340 36.1365 -8.2510 0.0000 -0.0000 -9.1389 -19.2280 -0.5317 0.1855 7.1250 -0.0000 -0.0000 5.8112 -30.5148 2.0651
-0.3323 11.8984 2.4296 -385.4560 -76.0613 410.9780 0.0000 0.0000 0.0000 5.3239 18.0879 -59.0158 25.1441 19.3534 105.1977 1.6017 -12.2618 -22.9844 4.7419 -13.0871 -39.6952 0.0000 0.0000 0.0000 10.0331 27.6398 -88.1870 -19.5650 -19.9955 88.7281 -0.8765 16.1497 -18.8696 -0.9631 -6.2486 17.5074 -2.5470 -5.1539 19.8616 -0.9107 -7.4794 1.8587 2.4528 -3.5167 -8.8385 20.8434 14.5264 -7.7100 -21.3004 18.8150 1.2204 -8.1206 8.8668 5.7708 -0.0000 0.0000 0.0000 -16.6540 -54.7566 -23.5988 10.0737 -16.8548 -1.4962 -0.0000 -0.0000 27.7893 9.3165 17.6844 2.8530 -7.1250 0.0000 -0.0000 -17.7441 47.0763 -0.9376 -0.0000 0.0000 0.0000 79.4615 -15.8230 20.8886 -24.8727 36.0736 -8.2148 0.0000 -0.0000 -9.0242 -19.1965 -0.4841 0.1686 7.1250 -0.0000 -0.0000 5.8329 -30.4644 2.0799
-0.3355 11.8740 2.4321 -385.5190 -76.1038 411.0810 0.0000 0.0000 0.0000 5.3176 18.2421 -59.1690 25.2479 19.3265 105.5112 1.6170 -12.1867 -23.0768 4.7406 -13.0856 -39.6897 0.0000 0.0000 0.0000 9.9557 27.6642 -88.4375 -19.6683 -19.9974 89.0302 -0.8850 16.1731 -18.9405 -0.9720 -6.2766 17.5892 -2.5180 -5.1531 20.0104 -0.9122 -7.4760 1.9202 2.4457 -3.5161 -8.8559 20.7828 14.4957 -7.7949 -21.3249 18.7551 1.1457 -8.1268 8.8325 5.7474 -0.0000 0.0000 0.0000 -16.3348 -54.9536 -24.1384 10.0420 -16.8052 -1.4871 -0.0000 -0.0000 27.8167 9.3412 17.6189 2.8504 -7.1250 0.0000 -0.0000 -17.6968 47.0168 -0.9082 -0.0000 0.0000 0.0000 79.5169 -15.7838 20.9547 -24.8366 36.0365 -8.1936 0.0000 -0.0000 -8.8806 -19.1985 -0.4624 0.1610 7.1250 -0.0000 -0.0000 5.8298 -30.4416 2.0820
-0.3387 11.8518 2.4341 -385.5620 -76.1284 411.1610 0.0000 0.0000 0.0000 5.3138 18.3970 -59.3196 25.3428 19.3014 105.7982 1.6305 -12.1174 -23.1579 4.7367 -13.0810 -39.6724 0.0000 0.0000 0.0000 9.8753 27.6963 -88.6649 -19.7621 -19.9986 89.3045 -0.8957 16.1730 -19.0194 -0.9782 -6.2959 17.6454 -2.4867 -5.1516 20.1416 -0.9124 -7.4703 1.9790 2.4366 -3.5148 -8.8666 20.7261 14.4631 -7.8668 -21.3448 18.6948 1.0746 -8.1328 8.7989 5.7225 -0.0000 0.0000 0.0000 -16.0478 -55.1443 -24.6478 10.0231 -16.7757 -1.4816 -0.0000 -0.0000 27.8804 9.3509 17.4739 2.8307 -7.1250 0.0000 -0.0000 -17.6334 46.8790 -0.8431 -0.0000 0.0000 0.0000 79.5620 -15.7429 21.0586 -24.8280 36.0277 -8.1885 0.0000 -0.0000 -8.7407 -19.2114 -0.4531 0.1579 7.1250 -0.0000 -0.0000 5.8191 -30.4318 2.0795
-0.3417 11.8320 2.4356 -385.5690 -76.1414 411.2000 0.0000 0.0000 0.0000 5.3084 18.5419 -59.4575 25.4268 19.2788 106.0524 1.6424 -12.0523 -23.2285 4.7334 -13.0771 -39.6579 0.0000 0.0000 0.0000 9.7856 27.7369 -88.8652 -19.8460 -19.9994 89.5497 -0.9089 16.1480 -19.1067 -0.9805 -6.3031 17.6665 -2.4650 -5.1456 20.2633 -0.9123 -7.4608 2.0333 2.4313 -3.5113 -8.8759 20.6783 14.4279 -7.9228 -21.3607 18.6328 1.0062 -8.1402 8.7657 5.6959 0.0000 -0.0000 0.0000 -15.7926 -55.3285 -25.1002 10.0188 -16.7690 -1.4804 -0.0000 -0.0000 27.9293 9.3466 17.2674 2.7970 -7.1250 0.0000 -0.0000 -17.5604 46.6805 -0.7509 0.0000 -0.0000 0.0000 79.5948 -15.7024 21.1947 -24.8484 36.0487 -8.2005 0.0000 -0.0000 -8.6367 -19.2189 -0.4695 0.1637 7.1250 -0.0000 -0.0000 5.8143 -30.4492 2.0754
-0.3444 11.8145 2.4361 -385.5480 -76.1464 411.2100 0.0000 0.0000 0.0000 5.3066 18.6778 -59.5868 25.5002 19.2587 106.2749 1.6511 -12.0097 -23.2811 4.7303 -13.0735 -39.6443 0.0000 0.0000 0.0000 9.6905 27.7841 -89.0472 -19.9203 -19.9998 89.7669 -0.9235 16.1036 -19.1963 -0.9795 -6.3002 17.6579 -2.4659 -5.1395 20.3700 -0.9038 -7.4547 2.0815 2.4472 -3.5086 -8.8796 20.6209 14.3913 -7.9689 -21.3625 18.5724 0.9532 -8.1416 8.7341 5.6700 -0.0000 0.0000 0.0000 -15.5753 -55.4870 -25.4930 10.0313 -16.7885 -1.4840 -0.0000 -0.0000 27.9427 9.3390 17.0691 2.7636 -7.1250 0.0000 -0.0000 -17.4942 46.4890 -0.6628 -0.0000 0.0000 0.0000 79.5839 -15.6552 21.4085 -24.8963 36.0978 -8.2287 0.0000 -0.0000 -8.6266 -19.1884 -0.4306 0.1499 7.1250 -0.0000 -0.0000 5.8358 -30.4080 2.0889
